<?xml version="1.0" encoding="UTF-8" standalone="no"?>
<!-- Created with Inkscape (http://www.inkscape.org/) -->

<svg
   width="195.11189mm"
   height="149.58578mm"
   viewBox="0 0 195.11189 149.58578"
   version="1.1"
   id="svg150"
   xmlns="http://www.w3.org/2000/svg"
   xmlns:svg="http://www.w3.org/2000/svg">
  <defs
     id="defs147" />
  <g
     id="layer1"
     transform="translate(-1.5008604,-36.020659)">
    <path
       style="fill:#000000;stroke-width:0.264583"
       id="path156"
       d="m 44.201836,99.232708 c -0.07925,1.008902 -0.352216,2.001532 -0.796978,2.911292 -0.114792,0.23482 -0.250393,0.45888 -0.375589,0.68831 -0.79737,1.26511 -1.896218,2.3054 -3.161138,3.09784 -0.259348,0.16248 -0.532377,0.30201 -0.798563,0.45302 -1.318554,0.65674 -2.761671,1.05441 -4.244769,0.92675 -0.295923,-0.0255 -0.587436,-0.0883 -0.881152,-0.13244 -0.790006,-0.22243 -1.006867,-0.24511 -1.752595,-0.61182 -0.289372,-0.1423 -0.674785,-0.20174 -0.841031,-0.47805 -0.139853,-0.23244 0.730811,0.59302 0.747292,0.32225 0.01995,-0.32762 -0.498549,-0.42853 -0.726445,-0.66474 -0.226661,-0.23493 -0.423048,-0.4973 -0.634572,-0.74595 -0.959895,-1.34016 -1.535903,-2.91491 -1.531027,-4.57561 0.0011,-0.35473 0.04942,-0.707746 0.07413,-1.061616 0.32894,-2.06869 1.258578,-3.966901 2.546262,-5.60819 0.288706,-0.367986 0.609164,-0.709912 0.913744,-1.064869 1.693238,-1.788075 3.713054,-3.241516 5.965132,-4.243451 0.432914,-0.192601 0.880703,-0.34985 1.321054,-0.524774 1.675776,-0.572792 3.434432,-0.924248 5.212898,-0.816391 1.179565,0.07154 1.429213,0.189286 2.570937,0.473316 0.839724,0.325858 1.635427,0.573609 2.378721,1.107035 0.10982,0.07881 -0.477224,-0.195228 -0.396044,-0.08715 0.274708,0.365739 0.698653,0.592442 1.020045,0.917927 0.879541,0.890744 1.054153,1.230863 1.775931,2.256909 1.399109,2.282098 2.20364,4.860036 2.530271,7.509515 0.07175,0.582007 0.09975,1.168579 0.149617,1.752869 0.134911,3.22512 -0.313542,6.44907 -1.18318,9.55309 -0.178019,0.63541 -0.392599,1.26001 -0.588901,1.89002 -0.828969,2.39071 -1.899465,4.70321 -3.320053,6.80304 -0.875527,1.29414 -1.150519,1.54639 -2.158463,2.71791 -1.848728,1.95617 -4.053152,3.55072 -6.558835,4.5552 -0.485206,0.19451 -0.986989,0.3448 -1.480482,0.5172 -2.652683,0.78913 -5.424765,0.87464 -8.147333,0.42885 -0.580538,-0.0951 -1.152959,-0.23437 -1.729441,-0.35155 -2.33399,-0.58856 -4.598938,-1.47694 -6.663638,-2.72308 -0.06074,-0.0367 -0.07161,-0.12655 -0.127176,-0.17067 -0.47368,-0.37607 -0.969557,-0.72331 -1.454336,-1.08497 -2.364585,-1.92749 -4.402701,-4.24723 -5.861106,-6.93646 -0.291633,-0.53776 -0.536087,-1.0998 -0.80413,-1.6497 -1.202206,-2.84234 -1.854003,-5.89617 -1.878748,-8.98527 -0.0051,-0.63983 0.04193,-1.27902 0.0629,-1.91854 0.219127,-2.69066 0.885459,-5.323755 1.969134,-7.796638 0.754715,-1.722216 1.049788,-2.104877 2.011325,-3.72399 2.021414,-3.086081 4.628968,-5.727059 7.565133,-7.947908 0.596982,-0.451546 1.219315,-0.868559 1.828973,-1.302838 2.468431,-1.670087 5.107723,-3.068949 7.846187,-4.240196 1.557309,-0.666065 2.478355,-0.988238 4.063434,-1.579266 4.013375,-1.412658 8.028281,-2.817477 11.970729,-4.419405 3.116204,-1.308653 6.121323,-2.905773 8.820422,-4.951314 0.517023,-0.391832 1.008936,-0.81574 1.513404,-1.223611 1.83615,-1.583002 3.486049,-3.375617 4.810141,-5.410919 0.803838,-1.235602 0.940654,-1.59716 1.595977,-2.901905 0.989793,-2.23075 1.688785,-4.614865 1.709211,-7.07235 0.0037,-0.442976 -0.03774,-0.885179 -0.0566,-1.327769 -0.219623,-2.040339 -0.917528,-4.008837 -2.287897,-5.566219 -0.239324,-0.271987 -0.514774,-0.509918 -0.77216,-0.764879 -1.511099,-1.155113 -3.200133,-2.283931 -5.114745,-2.595901 -0.913617,-0.148865 -1.098196,-0.07862 -2.025719,-0.0092 -0.364625,0.08913 -0.737986,0.148069 -1.093877,0.267388 -1.868379,0.626404 -3.427238,1.942939 -4.737804,3.375475 -0.428297,0.468159 -0.817131,0.970947 -1.225698,1.45642 -3.00056,3.912555 -5.121471,8.387231 -7.123398,12.865841 -1.882437,4.403201 -3.549714,8.906081 -4.840788,13.519983 -0.253497,0.905918 -0.478017,1.819696 -0.717026,2.729545 -0.873083,3.557611 -1.472578,7.176931 -1.861561,10.818172 -0.242739,2.272239 -0.281588,3.155918 -0.438086,5.437031 -0.349467,5.592096 -0.287248,11.196083 -0.129358,16.793083 0.191506,5.72893 0.53221,11.45135 0.85012,17.17425 0.295407,5.25009 0.581562,10.50076 0.799758,15.75469 0.196692,4.32897 0.196652,8.66128 -0.03082,12.98809 -0.17009,2.48672 -0.440729,4.97315 -0.962538,7.4132 -0.338741,1.58398 -0.454022,1.86333 -0.912267,3.40783 -0.682914,2.05039 -1.557822,4.04071 -2.688474,5.88548 -0.680397,1.11014 -0.89613,1.34527 -1.672894,2.37492 -1.326134,1.62753 -2.875116,3.0917 -4.737703,4.08817 -0.322223,0.17238 -0.660175,0.31359 -0.990264,0.47039 -1.615493,0.65649 -3.352559,0.97673 -5.09767,0.88711 -0.362431,-0.0186 -0.722353,-0.0708 -1.083529,-0.10625 -1.160627,-0.17998 -2.285038,-0.53077 -3.333858,-1.06226 -0.366805,-0.18588 -0.750331,-0.35615 -1.068367,-0.61682 -0.127653,-0.10463 0.568164,0.26996 0.477169,0.13225 -0.237165,-0.3589 -0.639893,-0.57512 -0.95984,-0.86267 -1.676909,-1.72137 -2.847822,-3.83701 -3.681707,-6.07764 -0.177574,-0.47713 -0.324465,-0.96513 -0.486698,-1.4477 -0.707759,-2.40808 -1.1120447,-4.91066 -1.0813316,-7.42482 0.0061,-0.49917 0.045789,-0.99736 0.068683,-1.49605 0.218149,-2.47233 0.772493,-4.91962 1.719548,-7.21765 0.181581,-0.44061 0.393663,-0.86802 0.590494,-1.30202 0.921112,-1.7917 2.084742,-3.49454 3.665465,-4.77053 0.244721,-0.19755 0.509883,-0.36833 0.764825,-0.55249 1.018369,-0.61071 2.194968,-1.11653 3.412611,-0.94874 0.191184,0.0263 0.375355,0.0899 0.563033,0.13492 0.170453,0.0872 0.684257,0.34365 0.511358,0.26146 -0.382761,-0.18197 -0.719003,-0.52236 -1.141067,-0.56082 -0.214987,-0.0196 0.296612,0.31621 0.417723,0.49491 0.466622,0.68852 0.623486,1.45471 0.788748,2.25287 0.320166,2.3088 -0.07464,4.61047 -0.594381,6.85664 -0.552925,2.13229 -1.366308,4.1831 -2.195821,6.21959 -0.364456,0.88555 -0.190745,0.4651 -0.520805,1.26148 0,0 1.64294,0.91524 1.64294,0.91524 v 0 c 0.29515,-0.81469 0.137873,-0.38546 0.472926,-1.28731 0.78244,-2.06799 1.588621,-4.13369 2.144952,-6.27712 0.529717,-2.25635 0.950311,-4.56393 0.692662,-6.89028 -0.142061,-0.81263 -0.278962,-1.59365 -0.709616,-2.31433 -0.646274,-1.08151 -1.883027,-1.60662 -3.012541,-2.0722 -0.193065,-0.0344 -0.383774,-0.0868 -0.579195,-0.10325 -1.240179,-0.10415 -2.409953,0.43549 -3.426925,1.08579 -0.253375,0.19234 -0.517129,0.37172 -0.760127,0.57702 -1.566207,1.32319 -2.713467,3.05897 -3.634966,4.87194 -0.196946,0.4384 -0.408789,0.8704 -0.590837,1.31519 -0.9479586,2.31609 -1.5090102,4.77873 -1.7383434,7.26738 -0.025141,0.50187 -0.06733,1.00317 -0.07542,1.5056 -0.040736,2.52992 0.3671228,5.0475 1.0651161,7.47411 0.1599391,0.48543 0.305176,0.97595 0.4798163,1.45628 0.817566,2.24862 1.959782,4.3814 3.610637,6.13083 0.315864,0.2929 0.598039,0.62695 0.947593,0.87869 0.810446,0.58365 1.670962,1.09489 2.520973,1.61925 1.369153,0.84462 2.874091,1.41384 4.470013,1.63664 0.366274,0.0322 0.731451,0.0813 1.09882,0.0966 1.764186,0.0733 3.514941,-0.26877 5.137212,-0.95756 0.905401,-0.44687 1.127156,-0.51832 1.974405,-1.09342 1.436391,-0.97501 2.660716,-2.22047 3.742706,-3.57058 0.767625,-1.03258 0.997794,-1.2908 1.668171,-2.40309 1.123913,-1.8648 1.983534,-3.8771 2.6688,-5.94028 0.453739,-1.54107 0.576487,-1.84797 0.910571,-3.42794 0.518485,-2.45204 0.779955,-4.95101 0.9412,-7.44923 0.20738,-4.3459 0.18321,-8.69608 -0.04196,-13.04178 -0.245856,-5.26533 -0.559896,-10.52704 -0.864362,-15.78925 -0.328488,-5.72198 -0.671103,-11.44415 -0.856906,-17.17299 -0.150715,-5.58943 -0.206568,-11.185357 0.144682,-16.769513 0.157033,-2.281396 0.196117,-3.156434 0.436877,-5.429173 0.385297,-3.637147 0.97413,-7.254044 1.834557,-10.810173 0.235736,-0.909847 0.456208,-1.823784 0.707205,-2.729537 1.277575,-4.61027 2.943522,-9.10734 4.848545,-13.493094 0.381188,-0.837382 0.749152,-1.680914 1.143561,-2.512153 1.703597,-3.590403 3.634211,-7.104197 6.103075,-10.230699 0.416274,-0.475088 0.812668,-0.968364 1.248826,-1.425265 1.330917,-1.394222 2.911496,-2.663431 4.783193,-3.233227 0.355578,-0.108249 0.726847,-0.155916 1.090273,-0.233876 0.922266,-0.04336 1.101008,-0.106571 2.00373,0.06206 0.314467,0.05875 0.62466,0.143108 0.927991,0.244755 0.307327,0.102987 0.580446,0.421439 0.900105,0.367845 0.253987,-0.04258 -0.834644,-0.593897 -0.655542,-0.408847 0.242493,0.250547 0.566636,0.406479 0.849955,0.609716 0.711467,0.672209 0.929518,0.810943 1.499716,1.627161 0.954972,1.367007 1.466295,2.955843 1.65752,4.602054 0.02341,0.438367 0.06917,0.87611 0.07026,1.315101 0.0061,2.439461 -0.661554,4.814837 -1.629532,7.035906 -0.642498,1.299879 -0.775211,1.658699 -1.566587,2.890229 -1.303105,2.02787 -2.931848,3.817093 -4.750721,5.393348 -0.500687,0.406276 -0.988796,0.828564 -1.502058,1.218833 -2.685198,2.041731 -5.681054,3.626696 -8.78436,4.930317 -3.937153,1.601298 -7.943522,3.014464 -11.951623,4.426847 -1.610614,0.604334 -2.482202,0.909148 -4.063728,1.591839 -2.74135,1.183346 -5.382659,2.594456 -7.856132,4.269925 -0.611799,0.436457 -1.236326,0.855602 -1.835397,1.309373 -2.949898,2.234416 -5.570719,4.889645 -7.610566,7.986035 -0.367471,0.614553 -0.760293,1.214641 -1.102414,1.843661 -1.636621,3.009067 -2.646371,6.316168 -2.95378,9.727172 -0.02551,0.64226 -0.07764,1.28403 -0.07654,1.9268 0.0053,3.10583 0.652482,6.17729 1.843046,9.04148 0.266288,0.55428 0.509033,1.1205 0.798864,1.66284 1.445799,2.70542 3.471758,5.04649 5.83155,6.99352 0.483697,0.36556 0.944899,0.76296 1.451091,1.09667 3.00279,1.97963 6.119221,3.66714 9.64287,4.48947 0.580472,0.11488 1.157002,0.25185 1.741414,0.34462 2.749664,0.4365 5.546233,0.34076 8.218786,-0.47281 0.495893,-0.1769 1.000242,-0.33169 1.487681,-0.5307 2.517563,-1.02789 4.72857,-2.64583 6.576369,-4.63051 1.008113,-1.19081 1.275774,-1.4391 2.150965,-2.75154 1.414158,-2.12066 2.483617,-4.44861 3.314615,-6.85336 0.197083,-0.63305 0.411946,-1.26083 0.591251,-1.89914 0.874401,-3.1128 1.349214,-6.3428 1.248291,-9.57916 -0.04416,-0.58621 -0.06621,-1.1745 -0.132479,-1.75863 -0.301758,-2.659756 -1.0859,-5.252647 -2.456797,-7.559287 -0.706263,-1.034153 -0.881385,-1.38322 -1.745175,-2.28583 -1.189316,-1.242769 -1.875425,-1.548831 -3.5852,-2.579029 -0.37773,-0.227595 -0.76826,-0.436046 -1.17108,-0.615527 -0.401127,-0.178728 -0.823788,-0.304556 -1.235684,-0.456834 -1.153197,-0.268952 -1.40948,-0.383882 -2.597914,-0.440804 -1.789562,-0.08571 -3.553103,0.286872 -5.231318,0.883414 -0.440492,0.180213 -0.888346,0.343393 -1.321477,0.540645 -2.26219,1.030224 -4.294987,2.499923 -6.010839,4.295433 -0.310062,0.357667 -0.635987,0.702178 -0.930193,1.072999 -1.314563,1.656911 -2.272096,3.574717 -2.641655,5.66497 -0.03137,0.35968 -0.08684,0.718066 -0.0941,1.079037 -0.0339,1.687353 0.527119,3.296793 1.476037,4.676653 0.37847,0.46325 0.846108,1.09984 1.344154,1.45226 1.06525,0.75377 2.724973,1.84881 4.08826,2.29277 0.294807,0.096 0.600265,0.15554 0.900398,0.23331 0.299384,0.0386 0.596924,0.0963 0.898152,0.11593 1.506016,0.0982 2.962992,-0.33136 4.292328,-1.0117 0.268467,-0.15567 0.543676,-0.30025 0.805399,-0.46701 1.282303,-0.81703 2.402456,-1.87578 3.228356,-3.15557 0.130503,-0.23283 0.271113,-0.46027 0.391512,-0.69848 0.462865,-0.91578 0.745641,-1.90916 0.910468,-2.91884 0,0 -1.729396,-0.902127 -1.729396,-0.902127 z" />
    <path
       style="fill:#000000;stroke-width:0.264583"
       id="path158"
       d="m 78.641339,83.857575 c -0.883899,0.880962 -2.026717,1.412039 -3.153995,1.906365 -1.438145,0.575768 -2.950869,0.984981 -4.495485,1.137259 -0.296357,0.02921 -0.594442,0.03696 -0.891662,0.05545 -1.043575,0.0136 -2.098474,-0.106408 -3.070349,-0.507929 -0.20429,-0.0844 -0.786104,-0.403801 -0.595019,-0.292698 0.357976,0.20814 0.73089,0.389454 1.096338,0.584182 -0.779415,-0.614931 -1.163653,-1.464908 -1.074933,-2.460313 0.02029,-0.227626 0.07689,-0.450543 0.115334,-0.675815 0.392393,-1.425186 1.203108,-2.686182 2.223069,-3.746306 0.218988,-0.227613 0.457978,-0.435094 0.686967,-0.65264 1.115846,-0.962941 2.413653,-1.687314 3.845152,-2.055302 0.262602,-0.06751 0.530916,-0.110429 0.796372,-0.165642 1.810452,-0.301067 3.409961,0.104592 5.10444,0.705807 1.759775,0.743022 3.465512,1.597065 5.254702,2.270178 1.494348,0.520012 3.057371,0.857586 4.643665,0.888188 0.329938,0.0064 0.659886,-0.01214 0.98983,-0.01823 1.764133,-0.103679 3.472923,-0.596881 5.03796,-1.413735 0.30081,-0.157003 0.588981,-0.337118 0.883473,-0.505677 1.212154,-0.77299 2.348582,-1.702379 3.139744,-2.918766 0.124267,-0.191056 0.227198,-0.395169 0.340799,-0.592752 0.363278,-0.767149 0.636129,-1.654294 0.293889,-2.48294 -0.05574,-0.134974 -0.140653,-0.255968 -0.210979,-0.383955 -0.101719,-0.112564 -0.191061,-0.237699 -0.30516,-0.337698 -0.123211,-0.107987 -0.259209,-0.202579 -0.402312,-0.282353 -1.150834,-0.641556 -1.636773,-1.136121 -2.736699,-1.240761 -0.659368,-0.06273 -0.835237,0.0031 -1.509861,0.09374 -1.8865,0.449037 -3.575259,1.462809 -5.070284,2.675921 -0.355291,0.288296 -0.690396,0.600618 -1.035593,0.900925 -1.735023,1.626643 -3.258235,3.475456 -4.494112,5.508892 -0.24248,0.398963 -0.462068,0.811395 -0.693102,1.217094 -1.321491,2.424467 -2.179156,5.052198 -2.953361,7.690898 -0.765128,2.7106 -1.341083,5.468392 -1.890713,8.229068 -0.517945,2.719033 -0.996592,5.44468 -1.595405,8.14745 -0.573588,2.69604 -1.587643,5.25166 -2.767846,7.73162 -0.684546,1.35401 -1.430941,2.68986 -2.388098,3.8735 -0.53553,0.66224 -0.664535,0.75086 -1.264425,1.32583 -0.89176,0.76435 -1.920904,1.38551 -3.08959,1.60185 -0.203986,0.0378 -0.411797,0.0507 -0.617693,0.076 -0.665372,0.0311 -1.321885,-0.0569 -1.944492,-0.30139 -0.227267,-0.0892 -0.866071,-0.44847 -0.660302,-0.31704 1.930363,1.23292 0.596971,0.21906 0.283564,-0.0358 -1.143457,-1.08671 -1.983668,-2.44569 -2.501259,-3.93393 -0.11003,-0.31637 -0.190183,-0.64235 -0.285274,-0.96353 -0.415092,-1.70714 -0.414372,-3.47476 -0.07976,-5.19576 0.06802,-0.34984 0.162636,-0.69399 0.243953,-1.04098 0.367157,-1.31188 0.911853,-2.57529 1.695395,-3.69449 0.435507,-0.62208 0.590841,-0.74981 1.097677,-1.28783 0.59904,-0.51297 1.460764,-1.36038 2.342393,-1.23205 0.133689,0.0195 0.256686,0.0844 0.38503,0.12654 -0.419796,-0.22637 -0.80807,-0.5249 -1.259391,-0.67911 -0.171553,-0.0586 0.273868,0.2403 0.387824,0.3813 0.133546,0.16524 0.249677,0.34533 0.350554,0.53231 0.409663,0.75932 0.561256,1.57613 0.721024,2.41301 0.33491,2.5704 0.04193,5.16304 -0.248271,7.72228 -0.364165,3.00894 -0.857981,5.9998 -1.433349,8.97494 -0.599358,3.02939 -1.365821,6.02164 -2.120892,9.01489 -0.655378,2.55296 -1.252717,5.12018 -1.797873,7.69881 -0.333324,1.64394 -0.651137,3.29098 -1.036383,4.92377 -0.03393,0.13781 -0.06786,0.27563 -0.101783,0.41345 0,0 1.688452,0.9063 1.688452,0.9063 v 0 c 0.02682,-0.14188 0.05364,-0.28376 0.08047,-0.42564 0.318005,-1.65886 0.616045,-3.3214 0.933984,-4.98027 0.516009,-2.58846 1.087988,-5.16548 1.733603,-7.72492 0.745419,-2.999 1.510996,-5.99465 2.121559,-9.02489 0.580644,-2.97719 1.072049,-5.97074 1.449663,-8.9809 0.307443,-2.55812 0.62739,-5.14504 0.362129,-7.72211 -0.13622,-0.84524 -0.268541,-1.6681 -0.637214,-2.45059 -0.09998,-0.21221 -0.445889,-0.82786 -0.673939,-0.97986 -0.654508,-0.43626 -1.362935,-0.78562 -2.044403,-1.17842 -0.140814,-0.0253 -0.279411,-0.0727 -0.422437,-0.0758 -0.948028,-0.0205 -1.713468,0.82001 -2.354871,1.39133 -0.502549,0.55908 -0.655791,0.69321 -1.089438,1.33205 -0.777822,1.14587 -1.329512,2.42673 -1.705438,3.75632 -0.08352,0.35092 -0.180136,0.69898 -0.250568,1.05275 -0.346281,1.73935 -0.364982,3.52839 0.03336,5.26054 0.09201,0.32593 0.169145,0.65643 0.276029,0.97779 0.499409,1.50154 1.316519,2.88222 2.434799,4.0041 1.19235,1.02982 0.687279,0.65734 2.874203,1.87879 0.401894,0.22447 0.915035,0.39617 1.366835,0.48331 0.564166,0.10881 0.753052,0.0754 1.318408,0.0633 0.210159,-0.0316 0.42264,-0.0505 0.630479,-0.0949 1.181491,-0.25236 2.210548,-0.91374 3.10031,-1.70904 0.596789,-0.59551 0.722342,-0.6856 1.254382,-1.36605 0.944195,-1.20758 1.681972,-2.56001 2.360192,-3.92947 1.168143,-2.49919 2.187355,-5.06787 2.770685,-7.77404 0.604099,-2.70294 1.085963,-5.42926 1.597824,-8.150765 0.542808,-2.756762 1.1153,-5.510154 1.885502,-8.214127 0.772446,-2.625431 1.623447,-5.240996 2.93125,-7.657531 0.228558,-0.403357 0.445667,-0.813419 0.685673,-1.210074 1.224095,-2.023041 2.736853,-3.86076 4.475631,-5.462238 0.345784,-0.295072 0.681297,-0.602618 1.037349,-0.885211 1.501868,-1.192012 3.201041,-2.172272 5.09927,-2.542413 0.671123,-0.05999 0.856644,-0.119777 1.50608,-0.02267 0.201731,0.03016 0.732419,0.294375 0.594772,0.143851 -0.303188,-0.331552 -0.760706,-0.478613 -1.132094,-0.731438 -0.249557,-0.169891 1.011635,0.5745 0.730565,0.535308 0.07652,0.114998 0.166775,0.221959 0.229555,0.344998 0.390938,0.766178 0.147146,1.628397 -0.179075,2.365671 -0.106378,0.19403 -0.201599,0.39461 -0.319138,0.582089 -0.755168,1.20451 -1.871318,2.117743 -3.05382,2.879222 -0.290018,0.165873 -0.573498,0.343734 -0.870051,0.497615 -1.553678,0.806215 -3.25374,1.26718 -5.003088,1.343697 -0.328377,0.0016 -0.656926,0.01535 -0.985134,0.0047 -1.57871,-0.05135 -3.130507,-0.404656 -4.614185,-0.93387 -1.784673,-0.684766 -3.488288,-1.546675 -5.258125,-2.266379 -1.746822,-0.596548 -3.329062,-0.973487 -5.183473,-0.639363 -0.267542,0.0606 -0.538168,0.108895 -0.802625,0.18179 -1.444352,0.398124 -2.749071,1.151853 -3.87147,2.137614 -0.231394,0.222247 -0.47244,0.434866 -0.694185,0.666742 -1.037812,1.085231 -1.87711,2.363859 -2.316226,3.80664 -0.04738,0.232264 -0.112696,0.461578 -0.142139,0.69679 -0.129371,1.033518 0.209261,1.948805 0.995561,2.631033 0.655965,0.391991 1.807961,1.194054 2.720078,1.534509 0.984816,0.367588 2.040842,0.463495 3.084375,0.429784 1.863248,-0.145934 3.698158,-0.517327 5.430713,-1.238245 1.167402,-0.503221 2.329267,-1.049705 3.293747,-1.896049 0,0 -1.667795,-1.027483 -1.667795,-1.027483 z" />
    <path
       style="fill:#000000;stroke-width:0.264583"
       id="path160"
       d="m 74.818686,98.156899 c -0.623125,0.487064 -1.338276,0.820923 -2.085877,1.064964 -0.317942,0.08063 -0.650833,0.151617 -0.980445,0.09552 -0.393383,-0.06694 -2.646654,-1.387224 0.958794,0.573278 -0.58058,-0.678757 -0.367278,-1.582743 -0.169574,-2.369825 0.515827,-1.552644 1.424998,-2.607413 2.625765,-3.676248 1.280869,-1.056026 2.595017,-1.466035 4.200504,-1.739416 1.87544,-0.218887 3.769111,-0.15722 5.653738,-0.183917 1.99005,-0.04564 3.990014,-0.159792 5.944843,-0.559848 0.431033,-0.08821 0.85633,-0.202459 1.284494,-0.303688 2.292027,-0.637334 4.456404,-1.660713 6.476738,-2.908898 0.422614,-0.261094 0.832803,-0.541785 1.249201,-0.812676 2.361453,-1.588257 4.481443,-3.459104 6.428463,-5.527178 1.22656,-1.377754 2.34916,-2.839854 3.06722,-4.548187 0.16686,-0.546079 0.34673,-1.231238 -0.036,-1.741109 -0.0801,-0.106738 -0.17866,-0.205116 -0.29474,-0.27097 -0.68486,-0.388523 -1.3984,-0.724149 -2.09759,-1.086221 -2.04005,-0.101092 -3.88335,0.919419 -5.59874,1.898444 -1.748479,1.093541 -3.365083,2.390817 -4.835709,3.83573 -1.025745,1.007809 -1.37618,1.44576 -2.331453,2.530354 -2.401467,2.803572 -4.39044,5.912572 -6.222394,9.107127 -1.462931,2.667085 -2.808449,5.404694 -3.907197,8.243448 -0.208542,0.538797 -0.398579,1.084577 -0.597868,1.626867 -0.834763,2.4248 -1.484951,4.92357 -1.76792,7.47687 -0.04831,0.43591 -0.07253,0.87416 -0.108804,1.31124 -0.08505,1.9028 0.04266,3.85251 0.816962,5.61918 0.132302,0.30186 0.301992,0.58593 0.452987,0.87889 0.178795,0.25602 0.340051,0.52524 0.536385,0.76807 0.338502,0.41868 0.844949,0.91097 1.306547,1.19665 1.150712,0.71217 1.983988,1.28987 3.193544,1.64142 0.303435,0.0882 0.616397,0.13946 0.924597,0.2092 1.936499,0.30073 3.873241,-0.0202 5.701708,-0.6879 0.42954,-0.15684 0.845759,-0.348 1.26864,-0.52201 1.695365,-0.77939 3.281362,-1.77886 4.706955,-2.98337 0.90159,-0.76177 1.10745,-1.01436 1.92453,-1.85498 1.36518,-1.51092 2.53347,-3.21088 3.28973,-5.1099 0.13313,-0.33429 0.2376,-0.67929 0.35641,-1.01894 0.43797,-1.50187 0.60509,-3.09469 0.20271,-4.62552 -0.0672,-0.25573 -0.16781,-0.50151 -0.25171,-0.75226 -0.27134,-0.55935 -0.33457,-0.76681 -0.71501,-1.25508 -0.78224,-1.00394 -2.06074,-1.58896 -3.14348,-2.134462 -0.19859,-0.100049 -0.42637,-0.126468 -0.63955,-0.189703 -1.39443,-0.252685 -2.790485,0.04339 -4.065414,0.632385 -0.318445,0.14711 -0.621036,0.32636 -0.931556,0.48954 -1.476647,0.89975 -2.822191,2.02763 -3.855826,3.42238 -0.180509,0.24357 -0.338939,0.50275 -0.508407,0.75413 -0.580308,1.00194 -1.100045,2.08909 -1.188072,3.26204 -0.01288,0.17151 -0.0034,0.34397 -0.0052,0.51596 0.0076,0.48606 0.186973,0.87511 0.42268,1.28429 0,0 1.754568,0.77254 1.754568,0.77254 v 0 c -0.260638,-0.37377 -0.454819,-0.72515 -0.4826,-1.19527 -0.0047,-0.1663 -0.02072,-0.33267 -0.01421,-0.49891 0.04513,-1.15181 0.531744,-2.23018 1.086797,-3.21832 0.163809,-0.24851 0.316341,-0.50484 0.491424,-0.74554 1.006864,-1.38421 2.331471,-2.50118 3.800192,-3.36772 0.310256,-0.15553 0.612537,-0.3281 0.930764,-0.46658 1.27684,-0.55564 2.67276,-0.80275 4.04341,-0.4948 0.20756,0.0719 0.77454,0.37443 0.62269,0.21571 -0.27786,-0.29042 -0.66692,-0.45236 -1.02457,-0.63575 -0.19287,-0.09891 0.36251,0.23973 0.52716,0.3807 0.53966,0.46205 0.92591,1.0498 1.22162,1.69021 0.0901,0.24488 0.197,0.48422 0.27031,0.73464 0.43905,1.49964 0.29556,3.07353 -0.11671,4.56008 -0.1133,0.33699 -0.21201,0.67924 -0.3399,1.01096 -0.72801,1.88833 -1.87787,3.57638 -3.22616,5.07456 -0.80457,0.8315 -1.01382,1.08883 -1.903282,1.84112 -1.414031,1.19596 -2.99035,2.18522 -4.680683,2.94171 -0.422984,0.16805 -0.839253,0.3541 -1.268955,0.50415 -1.836042,0.64111 -3.778348,0.9133 -5.704332,0.56857 -0.305557,-0.0772 -0.61646,-0.13579 -0.916673,-0.23174 -0.287872,-0.092 -0.738806,-0.61427 -0.844071,-0.33098 -0.107439,0.28915 0.4942,0.59308 0.784956,0.49007 0.275283,-0.0975 -0.485376,-0.32731 -0.706787,-0.51776 -0.602179,-0.51794 -0.712811,-0.74336 -1.186331,-1.38244 -0.157308,-0.28764 -0.333552,-0.56571 -0.471921,-0.86292 -0.810226,-1.74036 -0.95862,-3.68002 -0.899237,-5.57278 0.03051,-0.43657 0.04885,-0.87416 0.09152,-1.3097 0.249976,-2.5512 0.873292,-5.05126 1.69164,-7.47586 0.195643,-0.54212 0.381511,-1.08787 0.586928,-1.62636 1.082495,-2.837698 2.42448,-5.569976 3.884387,-8.230618 1.823694,-3.187428 3.808307,-6.287736 6.222775,-9.067599 0.956969,-1.072539 1.312302,-1.511009 2.33997,-2.50548 1.477214,-1.429493 3.101436,-2.70865 4.862296,-3.771053 1.54395,-0.841891 3.22841,-1.756484 5.04399,-1.744742 0.20342,0.0013 0.40439,0.04457 0.60659,0.06686 -0.39924,-0.26524 -0.80127,-0.526344 -1.19774,-0.795716 -0.10403,-0.07068 0.22858,0.113414 0.32025,0.199527 0.44611,0.419077 0.29086,1.100429 0.15929,1.610562 -0.0734,0.194778 -0.13642,0.393747 -0.22006,0.584332 -0.64701,1.474203 -1.68081,2.745549 -2.70652,3.967919 -0.78394,0.850019 -0.95101,1.059807 -1.80533,1.866355 -1.4178,1.338527 -2.9552,2.54744 -4.563889,3.647559 -0.416065,0.267906 -0.825966,0.54564 -1.248196,0.803725 -2.018672,1.233887 -4.180511,2.241605 -6.471853,2.849724 -0.428302,0.0968 -0.853909,0.206417 -1.28491,0.290382 -1.962769,0.382376 -3.967567,0.481317 -5.962311,0.513649 -1.904592,0.01498 -3.81984,-0.0582 -5.714092,0.177245 -1.635721,0.29546 -2.961825,0.732943 -4.254974,1.826646 -1.19924,1.084924 -2.162148,2.201185 -2.715834,3.748103 -0.239173,0.833324 -0.472088,1.746486 0.02299,2.534515 1.542587,0.957105 1.848298,1.593045 3.416568,1.144425 0.761034,-0.27261 1.480206,-0.635647 2.14807,-1.0935 0,0 -1.654718,-1.050084 -1.654718,-1.050084 z" />
    <path
       style="fill:#000000;stroke-width:0.264583"
       id="path162"
       d="m 120.57876,101.80116 c -1.24843,-0.0409 -2.40666,0.44939 -3.51978,0.95552 -1.79894,0.86205 -3.25481,2.20533 -4.58293,3.66519 -0.92474,1.08786 -1.78287,2.26167 -2.3029,3.60259 -0.0819,0.21111 -0.14333,0.42958 -0.215,0.64438 -0.21011,0.83509 -0.30434,1.75674 0.12067,2.54614 0.0675,0.12537 0.1595,0.23592 0.23924,0.35388 0.10155,0.0991 0.19337,0.20924 0.30465,0.29725 0.11454,0.0906 0.24059,0.16669 0.36927,0.23574 1.13852,0.61099 1.55174,1.10484 2.59962,1.1477 0.52628,0.0215 0.68209,-0.0407 1.20872,-0.14009 1.69568,-0.4965 3.0806,-1.61833 4.36531,-2.7869 1.33335,-1.26973 2.32156,-2.81536 3.1513,-4.44476 0.52918,-1.07797 0.91217,-2.2166 1.27464,-3.35863 0.0347,-0.11002 0.0691,-0.22017 0.10424,-0.33006 0.0764,-0.23881 0.26278,-0.78456 0.20701,-0.58738 -0.57368,-0.26165 -1.11252,-0.6198 -1.72103,-0.78494 -0.10054,-0.0273 -0.0137,0.20791 -0.0228,0.31169 -0.0129,0.14727 -0.0275,0.29441 -0.0433,0.44141 -0.0738,0.68979 -0.16509,1.37749 -0.2552,2.06528 -0.24933,1.77368 -0.49625,3.5475 -0.68903,5.32833 -0.11999,1.12334 -0.19088,2.25448 -0.0388,3.37701 0.0763,0.30009 0.12616,0.75462 0.44314,0.92042 1.97644,1.03378 1.27359,1.19763 2.27301,0.83605 1.31495,-0.77453 2.19291,-2.08817 3.04096,-3.31931 1.19049,-1.86627 2.3055,-3.78015 3.42608,-5.68901 0.87367,-1.5057 1.72542,-3.02743 2.76921,-4.42367 0.45503,-0.51843 0.95091,-1.1964 1.68479,-1.29445 0.54671,0.20478 1.76896,0.67149 -1.34823,-0.75842 -0.0826,-0.0379 0.13033,0.12929 0.17743,0.20701 0.2496,0.41188 0.27781,0.90828 0.33277,1.37151 0.0915,1.7579 -0.25138,3.49707 -0.59388,5.21192 -0.31227,1.45222 -0.63676,2.90176 -0.95011,4.35376 -0.0946,0.48127 -0.21391,0.95916 -0.27214,1.44685 0.61875,0.25157 1.20134,0.62339 1.85624,0.75471 0.12812,0.0257 0.12449,-0.22981 0.18572,-0.34526 0.0855,-0.1612 0.16979,-0.32303 0.25445,-0.48467 0.38353,-0.73228 0.76401,-1.46611 1.14409,-2.20018 0.95413,-1.89511 1.97382,-3.75398 3.10678,-5.54797 0.84024,-1.30309 1.80501,-2.52102 2.95863,-3.55888 0.27435,-0.20971 0.54696,-0.45553 0.87996,-0.57198 0.0673,-0.0235 0.13827,-0.044 0.20953,-0.0426 0.059,0.001 0.22093,0.0793 0.16966,0.0501 -0.50477,-0.2867 -1.02251,-0.54994 -1.53377,-0.82491 0.0545,0.0673 0.12184,0.12609 0.16361,0.20201 0.42058,0.76435 0.32925,2.11709 0.3113,2.95271 -0.0838,1.88857 -0.42624,3.75143 -0.78162,5.60403 -0.203,1.13593 -0.4896,2.26282 -0.57588,3.41627 -0.0321,0.97274 0.34871,0.82256 1.7963,1.47403 0.088,0.0396 0.86528,-0.86739 0.89681,-0.90403 1.51514,-1.84424 2.73721,-3.90031 3.94248,-5.95312 1.68366,-2.87818 3.23068,-5.83171 4.72403,-8.812015 1.45776,-2.91443 2.82308,-5.872636 4.04709,-8.892619 1.00021,-2.477995 1.71175,-5.052923 2.27267,-7.661288 0.37127,-1.763046 0.62097,-3.547176 0.67771,-5.3481 -0.006,-0.908973 -0.039,-1.857708 -0.49226,-2.667981 -1.69676,-1.851819 -2.27248,-1.338969 -3.12236,0.09269 -0.9317,1.892168 -1.37418,3.974894 -1.80446,6.025589 -0.60821,3.150471 -1.01232,6.335538 -1.40775,9.518245 -0.42558,3.447183 -0.77096,6.903398 -1.10953,10.359972 -0.28118,2.902877 -0.60249,5.801577 -0.93582,8.698847 -0.17841,1.55921 -0.38297,3.11531 -0.63167,4.66488 -0.0633,0.37486 -0.12146,0.75074 -0.19377,1.12401 0.59995,0.27801 1.16189,0.66012 1.79984,0.83403 0.10693,0.0291 0.0767,-0.20797 0.11453,-0.31216 0.33627,-0.92732 0.65794,-1.85968 0.979,-2.79235 0.72039,-2.19089 1.60044,-4.32046 2.60605,-6.39444 0.86926,-1.75308 1.92952,-3.39928 3.13186,-4.94023 0.6346,-0.70171 1.29281,-1.547929 2.21829,-1.884344 0.11184,-0.04065 0.23167,-0.05447 0.34751,-0.0817 0.10388,0.0076 0.21082,-0.0034 0.31166,0.02267 0.0986,0.02553 0.36609,0.178774 0.27684,0.129617 -0.46168,-0.254275 -0.90364,-0.553445 -1.39458,-0.745231 -0.12124,-0.04736 0.18039,0.189685 0.25152,0.298699 0.22074,0.338328 0.26636,0.567595 0.39579,0.955821 0.38629,1.570668 0.33462,3.200458 0.28799,4.804328 -0.0518,1.32325 -0.13667,2.64776 -0.0481,3.97095 0.1881,1.61124 0.59428,1.39772 2.28151,2.35456 0.0794,-0.0157 0.16208,-0.0198 0.2383,-0.0471 0.78701,-0.28231 1.55625,-1.28798 2.07151,-1.89956 1.30432,-1.64549 2.21136,-3.54779 3.0889,-5.44192 0.16381,-0.36954 0.32762,-0.73908 0.49143,-1.10862 0,0 -1.53669,-0.86621 -1.53669,-0.86621 v 0 c -0.16571,0.36732 -0.33142,0.73463 -0.49714,1.10195 -0.88414,1.87267 -1.79359,3.75871 -3.12661,5.36197 -0.43977,0.49343 -1.36345,1.62194 -2.08131,1.70983 -0.0645,0.008 -0.12889,-0.0164 -0.19334,-0.0247 3.32972,2.01234 1.53243,1.14009 1.24223,0.6375 -0.16285,-0.28204 -0.21851,-0.60952 -0.27006,-0.92561 -0.14157,-1.32535 -0.0817,-2.65866 -0.0339,-3.98811 0.0485,-1.61098 0.11377,-3.24199 -0.20708,-4.83154 -0.11252,-0.411368 -0.14656,-0.629189 -0.33865,-1.001209 -0.43975,-0.851641 -1.14536,-0.951484 -2.15136,-1.507281 -0.0944,-0.05218 -0.20711,-0.06758 -0.3147,-0.07591 -0.11176,-0.0087 -0.22354,0.01709 -0.33531,0.02561 -0.1194,0.04023 -0.24335,0.06885 -0.35819,0.120674 -0.91322,0.412155 -1.56505,1.256247 -2.1986,1.993686 -1.1827,1.57023 -2.2268,3.23887 -3.08744,5.00863 -1.00104,2.08024 -1.89264,4.20849 -2.65651,6.38793 -0.34051,0.91433 -0.67223,1.83593 -1.08,2.72327 -0.0435,0.0946 -0.2163,0.21121 -0.1382,0.28002 0.49719,0.438 1.11573,0.71507 1.67359,1.07261 0.0277,-0.3883 0.0767,-0.7748 0.11915,-1.16164 0.18493,-1.57717 0.35241,-3.15628 0.50707,-4.73672 0.28959,-2.91421 0.57639,-5.82871 0.85293,-8.74419 0.32831,-3.456567 0.67273,-6.911903 1.10408,-10.357403 0.40295,-3.168766 0.82237,-6.339403 1.46673,-9.469897 0.45083,-2.01484 0.91531,-4.067165 1.90456,-5.8981 0.20987,-0.319852 0.31796,-0.533038 0.59041,-0.78917 0.0732,-0.06881 0.15464,-0.131503 0.24482,-0.175763 0.0597,-0.0293 0.24898,-7.94e-4 0.19542,-0.0403 -0.37346,-0.274926 -2.15589,-1.298329 -1.32435,-0.819832 0.55794,0.736925 0.58151,1.71473 0.62025,2.602539 -0.0179,1.802157 -0.23532,3.591417 -0.58295,5.359763 -0.52944,2.61032 -1.21405,5.187656 -2.19632,7.668244 -1.20371,3.024465 -2.55476,5.985406 -4.01317,8.895865 -1.48869,2.977854 -3.03381,5.928304 -4.75222,8.781574 -1.22601,2.02954 -2.46372,4.07648 -4.0738,5.83131 -0.15877,0.15901 -0.47341,0.50825 -0.70292,0.64051 -0.0415,0.0239 -0.18089,-0.005 -0.14185,0.023 0.50388,0.35795 1.04522,0.66 1.56782,0.99001 -0.023,-0.0406 -0.0584,-0.0764 -0.069,-0.12191 -0.018,-0.0771 -0.01,-0.15806 -0.0147,-0.23709 0.006,-1.1617 0.28044,-2.30246 0.4641,-3.44411 0.33809,-1.86261 0.67907,-3.72993 0.80748,-5.62134 0.0533,-1.08236 0.16583,-2.25822 -0.28845,-3.27433 -0.62194,-0.35515 -1.22711,-0.74141 -1.86581,-1.06545 -0.28499,-0.144582 -1.12366,0.57602 -1.29628,0.7372 -1.11618,1.09035 -2.05966,2.33576 -2.89503,3.65235 -1.12474,1.80359 -2.14912,3.66394 -3.13283,5.54793 -0.48125,0.88271 -0.96052,1.76789 -1.48818,2.62414 -0.0663,0.1076 -0.29127,0.22762 -0.20437,0.31941 0.44918,0.47438 1.06052,0.76322 1.59077,1.14482 -0.006,-0.493 0.1117,-0.97849 0.18116,-1.46376 0.26676,-1.46897 0.57089,-2.93036 0.88078,-4.39077 0.34119,-1.72323 0.69147,-3.46324 0.67979,-5.2277 -0.0962,-1.43416 -0.39356,-2.78068 -2.45919,-2.77515 -0.73511,0.2343 -1.23107,0.86669 -1.68816,1.45555 -1.00445,1.43029 -1.831,2.97078 -2.70044,4.48469 -1.11012,1.90937 -2.22642,3.81802 -3.44069,5.66348 -0.75257,1.05912 -1.54607,2.24835 -2.67675,2.94649 -0.12649,0.0781 -0.26728,0.13024 -0.40092,0.19536 -0.88363,0.15509 -0.32394,-0.0136 1.15058,0.96595 0.057,0.0378 -0.13587,-0.033 -0.19213,-0.0718 -0.22426,-0.15489 -0.27705,-0.47303 -0.35143,-0.70876 -0.20373,-1.1142 -0.15613,-2.24789 -0.0594,-3.37229 0.16642,-1.78087 0.40731,-3.55277 0.69085,-5.31875 0.10516,-0.67869 0.21216,-1.35706 0.31844,-2.03557 0.0226,-0.14415 0.0449,-0.28833 0.0667,-0.43261 0.0156,-0.10345 0.12251,-0.23994 0.0453,-0.31057 -0.5108,-0.46751 -1.13048,-0.79995 -1.69573,-1.19993 -0.19892,0.31399 -0.16311,0.74882 -0.31735,1.0826 -0.31988,1.14799 -0.68195,2.28679 -1.19384,3.36603 -0.79877,1.62084 -1.76279,3.15471 -3.08887,4.40279 -1.27867,1.14508 -2.66134,2.24206 -4.36121,2.66351 -0.52163,0.0732 -0.67737,0.12898 -1.19297,0.0764 -0.16859,-0.0172 -0.62127,-0.21441 -0.49906,-0.097 0.34509,0.33149 0.81519,0.50241 1.20702,0.77707 0.2287,0.16031 -0.97341,-0.51305 -0.70091,-0.45903 -0.0859,-0.10643 -0.18382,-0.20426 -0.25786,-0.31929 -0.47076,-0.73137 -0.40469,-1.63206 -0.2251,-2.4415 0.0651,-0.21179 0.11953,-0.42713 0.1952,-0.63536 0.48452,-1.33326 1.32446,-2.49771 2.23024,-3.57434 1.31354,-1.44881 2.76238,-2.77017 4.56535,-3.58594 1.12786,-0.47963 2.31172,-0.94873 3.56268,-0.80001 0,0 -1.57106,-1.17179 -1.57106,-1.17179 z" />
    <path
       style="fill:#000000;stroke-width:0.264583"
       id="path164"
       d="m 176.02529,67.612267 c -0.85396,1.591281 -1.75686,3.15613 -2.63498,4.734309 -0.67564,1.224433 -1.33676,2.45678 -1.99887,3.688553 0,0 1.48452,0.852078 1.48452,0.852078 v 0 c 0.67383,-1.223894 1.34798,-2.447648 2.04114,-3.660754 0.90286,-1.563931 1.81022,-3.126248 2.79453,-4.640884 0,0 -1.68634,-0.973302 -1.68634,-0.973302 z" />
    <path
       style="fill:#000000;stroke-width:0.264583"
       id="path166"
       d="m 183.96188,96.802121 c -1.5602,-0.280477 -3.09598,0.120047 -4.57752,0.580636 -1.56396,0.559557 -3.04758,1.238205 -4.30753,2.335454 -0.56175,0.608079 -0.70751,1.214069 -0.14352,1.891359 0.11077,0.13302 0.24721,0.24236 0.37082,0.36354 1.54456,1.20075 3.34843,1.95694 5.13555,2.70215 0.30468,0.13127 0.71195,0.29999 1.01151,0.45369 0.13172,0.0676 0.51656,0.28962 0.38639,0.21906 -2.77362,-1.50343 -1.42399,-0.96783 -1.13397,-0.51349 0.0537,0.0842 0.0741,0.18548 0.11116,0.27822 -0.005,0.12315 0.0108,0.24915 -0.0161,0.36946 -0.24529,1.09923 -1.39043,2.01962 -2.21882,2.67997 -0.73007,0.55677 -1.55935,0.93023 -2.39325,1.29673 0,0 1.51423,1.00639 1.51423,1.00639 v 0 c 0.84548,-0.37814 1.68691,-0.76295 2.42897,-1.32881 0.90209,-0.71412 2.02547,-1.60848 2.37236,-2.76507 0.0417,-0.13905 0.042,-0.28728 0.063,-0.43092 -0.0264,-0.1158 -0.0304,-0.23908 -0.0791,-0.34739 -0.0462,-0.10279 -0.10639,-0.20968 -0.19976,-0.2728 -0.62606,-0.42321 -1.28922,-0.78887 -1.93973,-1.17345 -0.43611,-0.25782 -0.9175,-0.4283 -1.37889,-0.63234 -0.62266,-0.25837 -1.2498,-0.51026 -1.85792,-0.80197 -0.20809,-0.0998 -0.80649,-0.44563 -0.61753,-0.31313 0.33089,0.23203 0.68648,0.42837 1.04575,0.61341 0.16942,0.0873 -0.31623,-0.21274 -0.47435,-0.31911 -0.76526,-0.66264 -1.11451,-1.09755 -0.38095,-1.97915 1.21105,-1.115796 2.64919,-1.774756 4.19307,-2.313779 1.50413,-0.442655 3.07218,-0.810963 4.63182,-0.412837 0,0 -1.54575,-1.185823 -1.54575,-1.185823 z" />
    <path
       style="fill:#000000;stroke-width:0.264583"
       id="path168"
       d="m 88.020643,153.19896 c -1.395804,0.38855 -2.619251,1.15251 -3.764508,2.01683 -1.039439,0.87652 -1.915861,1.94449 -2.445477,3.20555 -0.09108,0.21686 -0.15875,0.44283 -0.238125,0.66424 -0.277627,1.00597 -0.359548,2.08996 -5.29e-4,3.08967 0.06373,0.17752 0.156062,0.34342 0.234092,0.51513 0.104199,0.1506 0.194549,0.31178 0.312595,0.45178 0.641406,0.76072 2.418734,1.52591 3.008545,1.76567 0.319657,0.12994 1.103149,-0.009 1.393,-0.043 2.408737,-0.55987 4.346347,-2.14064 6.175282,-3.72074 2.445335,-2.21082 4.303152,-4.93932 6.062395,-7.70091 1.847277,-2.98688 3.355147,-6.16323 4.889967,-9.31677 1.3475,-2.76132 2.67599,-5.53193 4.04745,-8.28147 0.69364,-1.3756 1.4313,-2.73047 2.26001,-4.02974 0.13597,-0.0805 0.13689,-0.29259 0.26086,-0.38621 0.0213,-0.0161 0.0157,0.0908 -0.009,0.0799 -0.58792,-0.26453 -1.10405,-0.71257 -1.73102,-0.86265 -0.14151,-0.0339 -0.08,0.27982 -0.12256,0.41896 -0.0676,0.22086 -0.13851,0.44066 -0.20776,0.661 -0.83627,2.69736 -1.65868,5.39887 -2.51025,8.09149 -1.14222,3.54718 -2.22463,7.11269 -3.27357,10.6884 -0.82073,2.80473 -1.6247,5.61433 -2.33371,8.44958 -0.294985,1.30373 -0.649278,2.61512 -0.651985,3.96045 0.121023,1.12374 0.539261,1.09128 2.064545,1.61634 0.11305,0.0389 0.20527,-0.12457 0.29641,-0.20194 0.13708,-0.11636 0.25715,-0.25139 0.38572,-0.37709 1.68806,-1.97396 2.99886,-4.23197 4.30233,-6.46795 1.90048,-3.30925 3.63869,-6.70661 5.36406,-10.10914 1.62579,-3.25883 3.32891,-6.47822 5.1601,-9.62632 1.06034,-1.77515 2.17576,-3.53023 3.55227,-5.07941 0.10552,-0.10319 0.20571,-0.21212 0.31656,-0.30956 0.69867,-0.61416 1.30242,-0.10512 -1.23902,-1.09884 -0.0663,-0.0259 0.0608,0.13364 0.0603,0.20481 -10e-4,0.18098 -0.0436,0.35935 -0.0654,0.53902 -0.6352,2.8043 -1.57507,5.5321 -2.49067,8.25474 -1.23302,3.55254 -2.51211,7.08805 -3.64158,10.67538 -0.77458,2.45671 -1.36587,4.9643 -1.64065,7.52619 -0.10117,1.32005 -0.1133,2.59004 0.38268,3.83295 0.54782,0.95941 1.26916,1.17148 2.40317,1.75722 0.1123,0.058 0.24899,0.0555 0.37537,0.0537 0.40444,-0.006 0.57591,-0.11765 0.95715,-0.26725 1.66499,-0.92591 2.93732,-2.38454 4.14932,-3.82301 1.24117,-1.51455 2.28116,-3.17352 3.24552,-4.87316 0.51722,-0.92884 0.99561,-1.8784 1.48757,-2.82064 0.45353,-0.85206 0.61248,-0.67424 -1.53934,-1.16389 -0.11156,-0.0254 -0.0474,0.22388 -0.0734,0.33531 -0.0375,0.16079 -0.078,0.32087 -0.11701,0.48131 -0.37498,1.45898 -0.70886,2.92769 -0.99617,4.40634 -0.22665,1.1396 -0.33569,2.29503 -0.2233,3.4526 0.0651,0.34077 0.21159,1.11527 0.53377,1.32644 1.78966,1.17303 1.18997,1.0999 2.21705,1.13702 1.23418,-0.29584 2.08676,-1.35069 2.88721,-2.26287 1.32321,-1.57069 2.49365,-3.25826 3.56783,-5.00627 0.73828,-1.24201 1.39659,-2.52905 2.03493,-3.82452 0.17191,-0.35195 0.34475,-0.70365 0.5022,-1.06239 0.27084,-0.63307 0.15446,-0.32691 -1.76401,-0.86874 -0.10157,-0.0287 -0.055,0.2038 -0.0835,0.30543 -0.0442,0.15769 -0.0895,0.31508 -0.13457,0.47253 -0.32518,1.13615 -0.0265,0.0842 -0.38345,1.34596 -0.45266,1.59055 -0.81749,3.20393 -0.96659,4.85213 -0.018,0.87849 -0.0201,1.84621 0.43591,2.63373 0.065,0.11223 0.15187,0.21025 0.2278,0.31537 1.30245,1.1672 2.36706,1.69435 3.8793,1.03681 0.224,-0.0974 0.43364,-0.22493 0.65047,-0.3374 1.71556,-1.09098 2.98603,-2.69621 4.17143,-4.31655 1.273,-1.78432 2.20443,-3.76371 2.98032,-5.80434 0.40953,-1.21312 0.84257,-2.44448 0.92606,-3.73138 -0.0126,-0.17463 -0.002,-0.34793 -0.0919,-0.50694 -0.0343,-0.0605 -0.0781,-0.12288 -0.14005,-0.15449 -0.64257,-0.32815 -1.2729,-0.6985 -1.96019,-0.91807 -0.10933,-0.0349 -0.7813,0.47001 -0.78866,0.47517 -0.8267,0.71152 -1.58677,1.56413 -2.01298,2.58283 -0.0799,0.19108 -0.13119,0.39294 -0.19679,0.58941 -0.2301,1.07662 0.0616,2.10983 0.72191,2.98014 0.1358,0.17897 0.29588,0.33815 0.44382,0.50722 1.17815,1.03916 2.57963,1.86375 4.06268,2.38856 0.57476,0.20339 0.88238,0.26909 1.47146,0.42118 1.33187,0.3128 2.69333,0.46397 4.02835,0.75986 0.16913,0.0512 0.34138,0.0931 0.50739,0.15365 0.14851,0.0542 0.56909,0.27293 0.43454,0.18995 -0.41801,-0.25778 -0.84237,-0.5088 -1.28761,-0.71602 -0.11076,-0.0515 0.19383,0.15137 0.27346,0.24403 0.21321,0.24811 0.19568,0.32885 0.27607,0.63889 0.0168,1.09749 -0.64207,2.01845 -1.28882,2.8476 -0.66076,0.78439 -1.45679,1.41537 -2.4354,1.73521 -0.26441,0.0399 -0.38471,0.084 -0.64683,0.0293 -0.0912,-0.019 -0.17509,-0.0639 -0.26263,-0.0958 0.48289,0.26746 0.95364,0.55812 1.44867,0.80238 0.0785,0.0387 -0.13963,-0.10972 -0.19,-0.18132 -0.058,-0.0824 -0.0864,-0.18203 -0.12964,-0.27305 -0.0166,-0.13139 -0.0495,-0.26175 -0.0497,-0.39418 -0.002,-1.17831 0.67073,-2.52102 1.1481,-3.56799 0.90142,-1.92638 2.13833,-3.66013 3.37921,-5.37704 1.00943,-1.37734 2.00789,-2.76284 3.04874,-4.11676 0.38928,-0.43787 0.7079,-0.98174 1.20434,-1.31336 -0.5645,-0.25739 -1.09512,-0.60827 -1.69349,-0.77216 -0.0981,-0.0269 -0.001,0.20382 -0.0124,0.30489 -0.0169,0.14926 -0.0441,0.29725 -0.0722,0.44481 -0.12629,0.66358 -0.29069,1.32162 -0.43722,1.98088 -0.35373,1.51374 -0.60411,3.04625 -0.71311,4.59663 -0.0828,1.33843 0.0961,2.65379 0.54235,3.91449 0.37744,0.96108 1.06685,1.65466 1.92276,2.19718 1.63001,0.96457 2.24558,1.51749 3.96769,1.29113 1.00272,-0.17362 1.85785,-0.69163 2.65332,-1.29931 0.50946,-0.41042 0.95094,-0.89253 1.34308,-1.41402 0,0 -1.67386,-0.99 -1.67386,-0.99 v 0 c -0.36321,0.51753 -0.78221,0.99157 -1.27737,1.38827 -0.77972,0.58905 -1.62322,1.07394 -2.60931,1.20456 -0.40012,0.035 -0.77531,0.0554 -1.1726,-0.0243 -0.67309,-0.13517 -1.92955,-0.87102 0.55565,0.53357 -0.87108,-0.50071 -1.59239,-1.15031 -2.00074,-2.09153 -0.4929,-1.27003 -0.66301,-2.49154 -0.59896,-3.85462 0.0931,-1.54311 0.31892,-3.07215 0.69118,-4.57403 0.15845,-0.65439 0.33234,-1.30452 0.49303,-1.95825 0.0365,-0.14866 0.0726,-0.29753 0.10306,-0.44755 0.0225,-0.11058 0.14041,-0.25934 0.0557,-0.3339 -0.52224,-0.45978 -1.16116,-0.76697 -1.74173,-1.15045 -0.44843,0.40887 -0.77209,0.9355 -1.14314,1.41017 -0.99649,1.38457 -1.97565,2.78153 -2.9775,4.16227 -1.24073,1.7307 -2.48392,3.47225 -3.4179,5.39392 -0.5144,1.0833 -1.18667,2.38814 -1.28265,3.60358 -0.0114,0.1447 0.006,0.29023 0.01,0.43535 0.0313,0.1104 0.0462,0.22678 0.0938,0.33119 0.0401,0.0881 0.0841,0.18655 0.16575,0.2386 1.23927,0.78979 1.66059,1.34131 2.8701,1.04203 0.97971,-0.3829 1.78784,-1.03974 2.45848,-1.84773 0.67881,-0.87361 1.35122,-1.82743 1.40541,-2.971 -0.0205,-0.13364 -0.0219,-0.27169 -0.0616,-0.40091 -0.0626,-0.20344 -0.24685,-0.51059 -0.43191,-0.62861 -1.03235,-0.65837 -1.8229,-1.19764 -2.94571,-1.46116 -1.32792,-0.26967 -2.67768,-0.42207 -3.99494,-0.74597 -0.59486,-0.16118 -0.87938,-0.22315 -1.45788,-0.44067 -0.23564,-0.0886 -0.85604,-0.48695 -0.69636,-0.29233 0.23333,0.28439 0.62144,0.39393 0.93608,0.58451 0.39478,0.23912 -1.55293,-0.94131 -1.12271,-0.81042 -0.1506,-0.16074 -0.31256,-0.31154 -0.45181,-0.48221 -0.66103,-0.81019 -0.98609,-1.78452 -0.78916,-2.82305 0.0594,-0.18928 0.10442,-0.38373 0.17837,-0.56783 0.40074,-0.99772 1.14446,-1.8308 1.98216,-2.48365 0.14231,-0.0847 0.27693,-0.18402 0.42693,-0.25426 0.10859,-0.0509 0.43092,-0.0244 0.34357,-0.10656 -0.41888,-0.3939 -0.97863,-0.60505 -1.45018,-0.93406 -0.0532,-0.0371 0.1353,0.0139 0.18715,0.0528 0.13096,0.0983 0.1338,0.30458 0.15856,0.43876 0.006,1.28375 -0.4048,2.52397 -0.79029,3.73476 -0.74555,2.036 -1.6619,4.00608 -2.93223,5.7746 -1.18215,1.59634 -2.45532,3.17825 -4.19213,4.20087 -0.52185,0.24292 -0.69267,0.36465 -1.24627,0.47086 -0.17115,0.0328 -0.34652,0.0488 -0.52077,0.0461 -0.14496,-0.002 -0.53968,-0.15613 -0.43069,-0.0605 0.29325,0.25726 1.98202,1.23987 0.99065,0.62308 -0.0837,-0.0941 -0.17877,-0.17915 -0.25096,-0.28229 -0.51431,-0.73481 -0.52307,-1.70937 -0.53263,-2.56553 0.11179,-1.64146 0.45182,-3.25047 0.9418,-4.821 0.1868,-0.59441 0.37319,-1.18803 0.5909,-1.77205 0.0359,-0.0962 0.19014,-0.2193 0.11264,-0.28662 -1.62041,-1.40752 -1.52482,-1.7283 -1.70157,-1.05007 -0.11395,0.37262 -0.27733,0.72791 -0.42664,1.08703 -0.57816,1.31806 -1.20562,2.61584 -1.93186,3.85957 -1.05797,1.74674 -2.22279,3.42841 -3.5752,4.96289 -0.67024,0.72684 -1.52311,1.74391 -2.52744,2.01006 -0.11269,0.0299 -0.23171,0.026 -0.34756,0.039 -0.75559,-0.19462 -0.68097,-0.204 1.12784,0.77767 0.0851,0.0462 -0.15055,-0.12409 -0.21073,-0.19994 -0.23411,-0.29503 -0.32425,-0.67256 -0.40238,-1.03105 -0.14912,-1.14505 -0.059,-2.29411 0.14691,-3.42854 0.26931,-1.47297 0.59243,-2.93675 1.03391,-4.3688 0.0477,-0.15635 0.0951,-0.3128 0.14306,-0.46906 0.034,-0.11079 0.18756,-0.25275 0.10306,-0.33207 -1.70084,-1.59637 -1.45531,-1.64858 -1.87685,-0.71941 -0.43622,0.96745 -0.89386,1.92563 -1.39409,2.86185 -0.93236,1.70322 -1.94343,3.36724 -3.17913,4.87131 -1.20734,1.41525 -2.4867,2.85849 -4.19059,3.68016 -0.37849,0.11345 -0.53635,0.2089 -0.92364,0.16267 -0.1183,-0.0141 -0.44007,-0.17027 -0.34264,-0.10172 0.42618,0.29983 0.89381,0.53594 1.34071,0.80391 -0.0906,-0.0775 -0.19135,-0.14445 -0.27185,-0.23238 -0.0881,-0.0963 -0.15373,-0.21096 -0.2306,-0.31645 -0.0631,-0.1336 -0.13639,-0.26283 -0.18924,-0.4008 -0.41147,-1.07426 -0.35829,-2.26743 -0.329,-3.39388 0.21492,-2.57044 0.75336,-5.09305 1.49734,-7.56257 1.0901,-3.60002 2.34456,-7.14455 3.61426,-10.68465 0.94446,-2.70647 1.89845,-5.41229 2.72876,-8.15633 0.0433,-0.18313 0.0943,-0.36462 0.12993,-0.5494 0.023,-0.11933 0.1438,-0.28981 0.0458,-0.36169 -1.71736,-1.2599 -1.63183,-1.30202 -2.53239,-0.2827 -1.28825,1.62847 -2.37015,3.406 -3.40167,5.20504 -1.78562,3.17759 -3.46793,6.4112 -5.10125,9.66955 -1.72583,3.39778 -3.46698,6.78999 -5.40396,10.07392 -1.3259,2.20537 -2.65897,4.45356 -4.47069,6.30282 -0.13215,0.10649 -0.25394,0.22732 -0.39647,0.31948 -0.0789,0.051 -0.332997,0.0452 -0.261208,0.10577 0.456178,0.38496 1.013188,0.63142 1.515988,0.95313 0.0444,0.0284 -0.10772,-0.0314 -0.14025,-0.0729 -0.0564,-0.0718 -0.12014,-0.41616 -0.13256,-0.47225 -0.0864,-1.34607 0.2367,-2.67603 0.49324,-3.9882 0.64495,-2.85805 1.41883,-5.68367 2.22093,-8.50126 1.02591,-3.58056 2.09926,-7.14717 3.27604,-10.68147 0.87657,-2.66853 1.71923,-5.35017 2.69235,-7.98554 0.0836,-0.2124 0.16558,-0.42544 0.25079,-0.63719 0.0544,-0.13516 0.26459,-0.29444 0.16798,-0.40349 -1.52252,-1.71847 -1.38433,-1.67269 -1.90632,-0.73615 -0.74018,1.35815 -1.45106,2.73236 -2.11685,4.12866 -1.32267,2.77557 -2.62067,5.56295 -3.96908,8.32622 -1.52891,3.14912 -3.035229,6.3196 -4.883593,9.29811 -1.761429,2.74315 -3.625439,5.45232 -6.079897,7.63215 -1.853247,1.56283 -3.7846,3.09567 -6.230681,3.55143 -0.24938,0.0153 -0.498393,0.0532 -0.748144,0.046 -0.211267,-0.006 -0.750072,-0.25844 -0.628247,-0.0857 0.253627,0.35957 0.744376,0.47201 1.091475,0.74245 0.140142,0.1092 -0.321048,-0.15542 -0.467368,-0.25618 -0.387953,-0.26716 -0.444037,-0.39669 -0.730668,-0.76315 -0.08367,-0.16275 -0.181999,-0.31876 -0.251024,-0.48824 -0.38971,-0.9569 -0.323186,-2.01676 -0.073,-2.99678 0.07392,-0.21699 0.13606,-0.43836 0.221748,-0.65097 0.500716,-1.24242 1.355849,-2.28958 2.379892,-3.14004 1.15107,-0.85202 2.388788,-1.60796 3.81503,-1.88655 0,0 -1.600181,-1.11078 -1.600181,-1.11078 z" />
    <path
       style="fill:#000000;stroke-width:0.264583"
       id="path170"
       d="m 167.41475,145.19266 c -0.8102,-0.35869 -1.6644,-0.44097 -2.53719,-0.36587 -1.13894,0.1702 -1.97944,0.8743 -2.74542,1.6811 -0.82982,0.90849 -1.36442,1.99967 -1.77314,3.14746 -0.33904,1.00798 -0.427,1.92659 -0.23801,2.96883 0.19985,0.88405 0.7118,1.58478 1.35467,2.19888 1.24095,0.98284 2.65697,1.73893 4.18203,2.15775 0.82806,0.2196 1.6767,0.23021 2.52275,0.14556 0.73809,-0.0783 1.43109,-0.31658 2.099,-0.62857 0,0 -1.59524,-1.05789 -1.59524,-1.05789 v 0 c -0.6593,0.29263 -1.34209,0.51201 -2.06592,0.57236 -0.83224,0.0635 -1.66504,0.0341 -2.47357,-0.19621 -0.38309,-0.11319 -0.51703,-0.1434 -0.89143,-0.2924 -0.14989,-0.0597 -0.57603,-0.2856 -0.44358,-0.19353 0.38422,0.26709 0.80304,0.48057 1.20386,0.72203 0.13332,0.0803 -0.27133,-0.15312 -0.4014,-0.23862 -0.12586,-0.0827 -0.24372,-0.17704 -0.36558,-0.26556 -0.64863,-0.57432 -1.17821,-1.23304 -1.40315,-2.08835 -0.21968,-1.012 -0.15361,-1.90254 0.16432,-2.89268 0.39154,-1.12675 0.9165,-2.19265 1.73604,-3.076 0.77028,-0.79402 1.54314,-1.41922 2.68115,-1.55569 0.87763,-0.0419 1.73059,0.0809 2.52526,0.4783 0,0 -1.53545,-1.2209 -1.53545,-1.2209 z" />
    <path
       style="fill:#000000;stroke-width:0.264583"
       id="path172"
       d="m 155.28808,137.32904 c -0.35945,0.4509 -0.74101,0.88343 -1.10315,1.33214 -0.1224,0.15437 -0.0661,0.0826 -0.1693,0.21502 0,0 1.70264,1.0066 1.70264,1.0066 v 0 c 0.0907,-0.13536 0.0407,-0.0622 0.1507,-0.21914 0.33987,-0.46176 0.70892,-0.90198 1.0982,-1.32284 0,0 -1.67909,-1.01178 -1.67909,-1.01178 z" />
    <rect
       style="fill:none;stroke-width:0.264583"
       id="rect585"
       width="182.10443"
       height="117.56742"
       x="27.015491"
       y="42.524387" />
    <rect
       style="fill:none;stroke-width:0.264583"
       id="rect734"
       width="184.60588"
       height="149.58577"
       x="6.0034428"
       y="35.020084" />
    <rect
       style="fill:none;stroke-width:0.264583"
       id="rect736"
       width="1.5008607"
       height="12.507174"
       x="141.0809"
       y="184.60587" />
    <g
       id="g769">
      <rect
         style="fill:none;stroke-width:0.264583"
         id="rect749"
         width="193"
         height="152"
         x="1.5008608"
         y="41.023525" />
    </g>
    <rect
       style="fill:none;stroke-width:0.264583"
       id="rect771"
       width="1.0005738"
       height="1.0005738"
       x="2.0011475"
       y="48.027542" />
    <g
       id="g776">
      <rect
         style="fill:none;stroke-width:0.264583"
         id="rect773"
         width="191.60989"
         height="151.08665"
         x="1.0005739"
         y="34.019508" />
    </g>
    <rect
       style="fill:none;stroke-width:0.264583"
       id="rect778"
       width="195.11189"
       height="149.58577"
       x="1.5008603"
       y="36.02066" />
  </g>
</svg>
